<mxfile host="app.diagrams.net" modified="2023-05-08T02:45:43.849Z" agent="Mozilla/5.0 (Windows NT 10.0; Win64; x64) AppleWebKit/537.36 (KHTML, like Gecko) Chrome/112.0.0.0 Safari/537.36 Edg/112.0.1722.68" etag="DwaQP59ZuG4wJ6OLib1S" version="21.2.9" type="github">
  <diagram name="第 1 页" id="oyyRL3EKb9Zoqq3U5nI3">
    <mxGraphModel dx="985" dy="528" grid="0" gridSize="10" guides="1" tooltips="1" connect="1" arrows="1" fold="1" page="1" pageScale="1" pageWidth="2336" pageHeight="1654" math="0" shadow="0">
      <root>
        <mxCell id="0" />
        <mxCell id="1" parent="0" />
        <mxCell id="uut4hfN15O6eYL7KADeR-1" value="" style="shape=image;verticalLabelPosition=bottom;labelBackgroundColor=default;verticalAlign=top;aspect=fixed;imageAspect=0;image=data:image/png,iVBORw0KGgoAAAANSUhEUgAAAJQAAACsCAYAAACdFYUUAAAOWElEQVR4nO3db0gb9x8H8Hd//GCp25OshHK1Ppg3GUylBOIepLE+semDEMKvjLUZ2whBhDHWDX9IHTLqELFlJA+UKZQxpEqdZVBCcdBzMIypjBk4islgxNuDFhvGoXm0eT7q70F239+d+WP+fNWcfl5QuOS8733Te/u9733vzPfUy5cvX4IQTv511BUgxwsFinBFgSJcUaAIVxQowhUFinBFgSJcUaAIVxQowhUFinBFgSJcUaAIVxQowtW/j7oClQiHw9A0DX6/H8Fg8KirQ8qwRAulaRoAYHd394hrQvZjiUAR66BAEa4oUISrmjvly6dO1b3zHnr6+NihFopwZYlhg70kScLa2hrS6TQAwG63o6urCz6fDw6Ho+g277//PgBgcHAQTqez6jKM258/fx6zs7NIJpMAAEEQEIlEuH9OK7JUoHZ2dhCNRtmB1OVyOUiShPX1dQwNDZUMFQCoqoqxsTEWpGrLUFUVc3NzyGaz7D3j8kl3qtY/ozrMPpTeOujsdjs8Hg9aWlqwtbWFeDzODqooihgdHS1Zhs1mg6ZpVZexd3tBEHDlyhUAgKIo+Pjjj6v45MeXpVooAGhvb0d/f7+pBXG73RgZGUEul4OiKJBlGU6ns+j2mqbVVYamaSVDSyzWKRdFEcPDwwWnI4fDAa/Xy14/ffr0wMqw2Wy4ceNGLdU/ESwXqFLcbjdbVhTlwMq4dOlS2T7aSWepQJXD4yBTUOp3bAJFGgMFinB1bAKlqipbttlsNZWRyWTqLuOks1SgNjc3S65bXV1ly62trTWVYRwwLVcGKc1SgUqn04hGo6bWCMi3TpIksdcul6umMpaWlioqg5RmuYHNZDIJRVHg9Xpx5swZbG1tQZIk5HI5AEB3dzfa2tpqKkN/MrSSMkhxlgpUKBTC48ePkc1msbCwULC+vb1931sg3d3d2NjYKFmGy+Wi2yh1sFSgHA4HhoaGsLi4iLW1NdYqiaIIl8uFQCCwbxmnT59GJBLBzMxMVWXo9/BeeeUVfh/oGKr55rDV6Dd3vV4vQqHQEdfm+LJUp5w0PgoU4YoCRbiiQBGuTkyg9FspdJV2sE7MVR45HCemhSKHgwJFuKJAEa4oUIQrChThigJFuKJAEa4oUIQrChThigJFuKJAEa4oUIQrChThigJFuKJAEa4oUIQrChThigJFuKJAEa4oUIQrChThigJFuKJAEa4oUIQrChThigJFuKJAEa4oUIQrChThigJFuKJAEa4s8bXS4XAYmqbB7/cjGAwedXVIGZZoofQZDnZ3d4+4JmQ/lggUsQ4KFOGq5j7Uqdh/6t75y8DDussgjYVaKMIVBYpwZYlhg70kScLa2hrS6TQAwG63o6urCz6fb9+ZzWOxGJsvD8h/f3lHRwf8fn/JOfISiQSWl5ehKAq74hQEAZ2dnRXt8ySp+XvKD7MPpc8k1d3djZ2dHdNUrkaCIGBoaKjoAVZVFbdv30Y2my26rc1mw/Xr1+H1ek3vR6PRkvsD8mHu6+uD0+ms6LMcd5ZqoVZWVgDkD6LH40FLSwu2trYQj8eRzWaRzWYxMTGB0dHRgm0nJiZYmPS58fTZPPXtY7GYKVDT09MsTN3d3ejt7UVbWxtUVcXq6ipisRhyuRzm5uYoUP+wVKCA/Kyd/f39plbI7XZjZGQEuVwOiqJAlmXTAU4kEuwU197ejuHhYVOZgUAA0WgUqVTKtI0e4L1z7DkcDgQCAZw5cwZTU1MsjJVMAHncWapTLooihoeHC05pDofD1LI8ffrUtH55eZktv/fee0XLHhgYwBdffMFe//rrrwDyp8JSEzZ6PB7Y7XYAMIXxJLNcoEpxu91sWW+N9r4WBKHs5NTGdfo2zc3NZev0+uuvA/j/7aGTznKnvFLKXWnpB1s/+JXQ5yJWFIVdFJSzN8QnlaVaqHrt19rUo1zreZIcmxaqEtvb21VvI4pi0atGUtyxaaFUVWXL+mSLe+mnsUqUKoOUZ6lAbW5ully3urrKlltbW03r9NORoijIZDIlyzCuM25jDCspz1KBSqfTiEajBQdYVVVIksReu1wu0/q3336bLT948KBo2fPz87h16xZ73dHRwZZnZ2frqvdJYrk+lH4fzuv1spFuSZLY6ay7u7tgaKC3txeJRAK5XA7pdBpffvmlaaRcL9N4mgsEAuz9ZDKJsbEx9PT0wOPxAMiH+Pfff8f6+jpSqRSCwSBbd5JZ6l5eKBTC48ePS96PKzYKrpNlGZOTkyXHi2w2GwKBgGm0W1VVTExMVDQkMDg4SLdfYJFJrPVADQ4O4vz581hcXMTa2hprlfR7c/vd+lBVFYuLi1hfX2ehtNvt6OjoYPfpionFYkilUqanDWw2G5qbmyGKIi5cuEBh+oclAkWsw1KdctL4KFCEKwoU4YoCRbiiQBGuKFCEKwoU4YoCRbiiQBGuKFCEKwoU4YoCRbiiQBGuKFCEKwoU4YoCRbiiQBGuKFCEKwoU4YoCRbiiQBGuKFCEKwoU4YoCRbiiQBGuKFCEKwoU4YoCRbiiQBGuKFCEKwoU4YoCRbiiQBGuKFCEKwoU4YoCRbiiQBGuLPfF98eRLMv45Zdf8OLFC2xubpq+S9349dUXL14sO99fI7DM10pnMhn89NNP2NjYMH3HuCiKJWc0n56eNs1T/Pnnn+97QMLhMDRNg9/vRzAYLFg/NjaGdDoNQRAQiUTq+kySJLF5iysliiI++uijqoJl3E+5yQF4sEQLFYvFsLCwUPB+LpdDMplEMpksGoAXL16YfvbevXv7TlWmtw67u7tl15eazaESqqri7t27SKfTAPKtUFdXFzo7O/HWW2+ZJpOUZRnPnj1j04QoioLx8XF8+umn+37ZfiaTwYMHD9h+jPU/KDUH6vJ/n9S986XIxX1/RpZlFibjfzwAPH/+nM3hsrS0VLRFMVIUBZIkmeYnPmyqquL27dsskF6vFz6fr+SMpE6nE06nE4FAAJIk4fvvv4emaZicnMSdO3dKbjc/P4+lpaVDn7q24Vuon3/+mS2Hw+GCCXqCwSDm5+eRTCZLliEIAnK5HDRNQywWO9JA3b17F9lsFjabraJWxsjr9aKpqQlTU1PQNA2Li4tFJ9jWT8tA/hR55coVTE1NcfsM5TT8VZ4+R57dbi8521MwGCzbn2lqasKlS5cA5E998/Pz/CtagVgsxg50OByuaX4Yj8fDpm+Lx+NFf0bTNNjtdly7dg2jo6OHOktWw7dQepO9s7NTVzk+nw/xeByapmFpaQm9vb1lJ77mTVVVxGIxAPkp2IwHWVVVzM7OIpVKsTB0dXUhFAphZmYGiqLg6tWrLIAdHR1IJpPQNA2yLBcEs9pOO08N30KdO3cOQD5Y9bQsDocDly9fZmX98MMPXOpXqdXVVWiaBpvNhnfffZe9L8sybt68yQIC5FtRSZIQjUaxtrYGRVHw2muvsW3eeOMNtvzXX38V7OsohxYaPlA9PT1s+dGjR5ienq55ytZgMAi73Q4AWFlZKTtdLG/66amjo8PUMs7NzbGghUIh3L9/H1999RUEQUAymUQul4PNZjOFpJHHoho+UMY+A5APws2bNzE9PV1TIIxXgqWmi+Utk8mwqzrj1LOxWIy9Hw6H2cVCW1sbhoaG2Ayjzc3Nh1JPHho+UAAwMDCAUCjE/oM1TcPKygpu3bqFaDRaVbA8Hg+boDqdTiORSBxInY1+++03tmy8wtSvTEVRLOg4OxwOFiS9vjpZlg+qqnWzRKCA/IG4c+cOvF4vO20B+YMyPj7OOryVuHr1Klt++LCyaWrroY+EC4Jgel+fetY4yXax9Xo/UmfsN509e5ZbPXmwTKCA/G9tKBTCN998g2vXrrFgaZqGhYWFin9znU4nO41ms9mqwlgLPRhNTU3sPWPL2NLSUrCN8bMYO+EAsLGxAQAFfatGYKlAGQUCAYyMjJj6Vz/++GPF23/44YfsFCpJUs0d/WrsPXWV8+zZMwDFQ7O+vg7A3B9rFJYNFJBvsYzBMN6zqmRb42Dn4uLigdSxFrIss1Zzb4c8kUiwjvw777xz6HXbj6UDBZg7r9Xy+XzstBmPxw+lldIZ+z7Ly8tQVRWqqmJmZgZff/01G5NSFIWdHhOJBL777jsAQHt7+6GOgFeq4UfKK7G9vQ0ArKWqlMPhgNfrxcLCArs3dpD0egL5oQFRFKEoCtLpND777DO2ThAEfPDBB/j222+Ry+UwNTVluhcnCAL6+/sPtK61augWSpIkfPLJJ2Uv7efn59lVVC19ikAgwPo2pe6N1UsP+t7nnm7cuGHqA9rtdni9XkQiETidTvT19aG9vZ2tFwSBrT/M20bVaOgWamdnh/2GPnz4EJ2dnXjzzTcBAFtbW+wZISB/0Px+f0370e/GV/uoR7mgnz17lnWmW1tbkU6noSgKVFVlYXA4HBgYGChZhv7oSrUymQz+/PPPouv+/vtvU71fffXVmvZRSkMHyu12Ix6PI5vNsn+SJBX8nN1uR19fX82X0B6PB8vLy1V16gGUfSTE+GSky+XCo0ePAKDkIyc87X2oziibzRbU+/79+9z2XXOgKnk4rl4OhwORSASSJCGVSkFRFHba0J+1drlcCAQCRbfXTzWV9K36+/sxMTHBWjy9Jdzr3Llz7GfKOX36NFs29pfi8TguXLjAtVUot+/9VNvv3I9lnim3ukwmg/HxcXYj+Pr160f6oN9BoUAdIlmWMTk5yfpqgiDA5XKhpaWlYAggkUjg+fPn+OOPP6Bp2r7PwjcKCtQhy2QyuHfvXkWnTd1B/6UKTxSoI5LJZPDkyRMoioLt7e2CIQVRFNmfibnd7oYdJtiLAkW4auiBTWI9FCjCFQWKcEWBIlxRoAhXFCjCFQWKcEWBIlxRoAhXFCjCFQWKcEWBIlz9DyOr/YEUiLbKAAAAAElFTkSuQmCC;" vertex="1" parent="1">
          <mxGeometry x="1253" y="137" width="86" height="99.95" as="geometry" />
        </mxCell>
        <mxCell id="uut4hfN15O6eYL7KADeR-2" value="" style="shape=image;verticalLabelPosition=bottom;labelBackgroundColor=default;verticalAlign=top;aspect=fixed;imageAspect=0;image=data:image/png,iVBORw0KGgoAAAANSUhEUgAAAlEAAAGuCAMAAAHwiZMrAAAAAXNSR0IArs4c6QAAAARnQU1BAACxjwv8YQUAAABmUExURf////n5+WxsbFlZWcXFxY2Njenp6WRkZKurq7+/v6Ojo3l5efj4+Pz8/IuLi2BgYPHx8VxcXNvb29fX13h4eAAAAIqKikRyxNnZ2cAAAACwUHp6esLCwvX19WhoaDg4OCAgIAAAAP3m4yUAAAAidFJOU////////////////////////////////////////////wAN0MNxAAAACXBIWXMAABcRAAAXEQHKJvM/AAAW/klEQVR4Xu3d0VLjuraF4VQ5VTR9lXK62bX3Def9n/JI8h/LAk+G7bjBgfGtrhZLnjjSXGMFAnFy+hnOpxc+skfWnZ756H5/GFf7T8bHW/w342OfSxPnWvXfUZyrY1xkONf/sp326HMtJc71a00qxLl6xkXEuWYMtXOOcK652jXnUrXq+JSqFcfPjIWo/cx1NVStOj6latXxKVWrjk+pWnV8StWK4yUT/XVQavtSey61576f/JkevzbHy6lapfYYe2yoWnV8StWq41OqVh2fUrXi+Dnf4/cotddSO/w3Zx7TTPTNcU42VWqPsceGqlXHp1StOj6latXx6XdzqlYdN7Ovtt+D/2TVY73qznuH4Y5m4FN97NNO9Xy68NECw6l2+VLhUy33aaf6pz8DGipnffmpZiuXn0pWyoKRrJQFI1kpC0ayUhaMZKUsGMlKWTCSlbJgJCtlwUhWyoLxIX6pbB/NTR7g9+dpAQ/nhiOcZqJUHmeDkJWyYCQrZcFIVsqCkayUBafTdXiEXirjh/Y8tm/CMOA0E6XyOBuErJQFI1kpC0ayUhaMZKUouGx8CGDf0S/GY+lTRpvfXJjZp8o/dupW/ITgfuWLVcHEpypfNgsmwJISJj4VS0qYAEtKmPhULClhAiwpYeJTsaSECbCkhIlPxZISJsCSEiY+FUtKmABLSpiYUb4yl59K5wcG6YHiXn8Nj06Kfvj1YtEPv5gubqX8lRfxz7GkhB8aFUf6L8iSEq9qDktKvCqFJSXrV1W/Z8//e153/MOSkn744UTRDz+iKNpP+Cb3DJwxYWIJlpT82FVxxoSDEZaU7Lgqzph8xapey5/3OGPyBasqP2eYe3oqZ0y+olcRzph4VQpnTLwqhTMmX7Cqp+iZJJwx+YJV5TuF2YVxxuQLVhXijIlXpXDGxKtSOGPyBavK/w/OfsfMGZMvWFWX7haOt6oQZ0y8KoUzJl6VwhmTr1nVZfbJYZwxOVKvzMwOJN15PvHhUZR79PKr3b/l37/QZAFd+YYvOdKiRl7UHC9qKS9qKS9qKS9qqekCnvlx44EW1acvfi/lUdZnLYqHWAkTN9MF/OGR36EWdbP3ongwmjABVpQwceNFeVECK0qYACtKmLjxorwogRUlTIAVJUzceFFbFvWvvvaxooQJsKKEiZu6gPxdwul3/uhv8yTIu/9a8uyq9pOmXem75/I6k/+yU6woOVCmWFHiRb3HihIv6mOsKPGiPsaKEi/qY6wo8aI+xoqSDYtKX5CP9rUv/3D/17Co9JW9fVb0fX9YUdJcnTFcR140n9B8l9Clf/xdAitKKLxZuyjOmDCxACtKvKiPsaLkpy6KMyYcDLCi5LsvijMmXlTrSIvKX4/L4/YDLar8tv2QiyoOtKjKiyoovPGivCgvCpwx8aJaXlRB4c10Ac/H+y6h/HC/PFHwb3r0PMUZk/jS53P4Z/r518nD9uv0YXvzOc0P9/8ET5bgjMkX/Oe78aIKCm+8KC/KiwJnTLyolhdVUHgzXcAfrpg+0KLKdwnDospP2CvOmDRf5ZvvEmLRdwntdxmNaVf6VxZV/q3ijMkX/Oe78aIKCm+8KC/KiwJnTLyo1tEWVV7Z6GCLGl717GCLOuYLO5uZmdkBPJ2eh29fLv6G4UN9atPwlIn6KpZ//v50tyeRNFKDSo8mB99+c/zzLO2AO+VOLeVOLeVOLeVOLeVOLeVOLeVOLeVOLeVOLeVOLTXbgV/DQ77pY0J3aq4DF36W8DJp1l+eVvFd8DuqBocCs1npu9Sh7nTJA46eKX5r1+DQLJrT4FBgaQfcKXeq4lDAnao4FHCnKg4F3KmKQwF3quJQwJ2qOBRwpyoOBdypikMBd6riUGC+A115/uJrV99Y3Z2a68DtEXJ91Pe4neKZm408T3MaeT422yl+6pKMT0xwp5Z2wJ1yp6o8H3Onqjwfc6eqPB9zp6o8H3Onqjwfc6eqPB9zp6o8H3Onqjwfc6eqPB9zp6o8H5vtwNPpuVxz/1yfj+5OzXXg9sz9l+EFiAt3arYDt2fuu1MTSzvgTv3jTrG2Bof2RXMaeZ7bbOR5mtPI8zF3qsrzMXeqyvMxd6rK87Ev6hRra5RP2IrmNPI8t9nI89xmI8/H3Kkqz8d26hRra+R51tbI86ytkec34zYbeZ7bbOR5brOR52PuVJXnY+5Uledj7lSV52OzHRgf9z33ZUjcqbkO1FcBeKqd4vnrAdbWSNOTl3Kucj1ra+T5bZrXj67yOzRxm41UvnoB5/ln7nc5TPl1IV+cqZHowMidcqeqPB9zp6o8H3Onqjwfc6eqPB9zp6o8H3Onqjwfc6eqPB9zp6o8H3Onqjwfc6eqPB+b7cD4fPTnpdc4sLZGnmdtjTzP2hp5fjNus5Hnuc1Gnuc2G3k+NteB2zUOp9/jA2R3ar4DvApA13XjExPcKdGBkTvlTlV5PuZOVXk+5k5VeT7mTlV5PuZOVXk+5k5VeT7mTlV5PuZOVXk+5k5VeT4234HhVQBOL8Nb62bu1FwHxkfIvTtVzXbq9lMXd2pCdGDkTrlTVZ6PuVNVno+5U1Wej7lTVZ6PuVNVno+5U1Wej7lTVZ6PuVNVno+5U1Wej7lTVZ6PfdSB8Qn8iTv1QQfqE/gT3sQuwtoaeZ61NfI8a2vk+c24zUae5zYbeZ7bbOT5D9CJOeUJ/GZmZmZmZmZm8y6/bj9keRoGm5faww9Z6isu2owUp/yju6ZP/AjrB6MRUylRQ6PGn3LKnwh/f3MNSEEqWZpcfeVGzTag6/r8WsOTQLlRSxvgRjEqbhSj4kYxKm4Uo+JGMSpuFKPiRjEqbhSj4kYxKm4Uo+JGMSpuFKPiRjEqbhSj4kYxKm4Uo+JGMSpuFKPiRjEqbhSj4kYxTt1+pe7fwkzMNSD/Sv18Op3HV59M3CjGKX6l/vLSjZcOfbtGcRFMg0PzgkTll9V4ad4ehTe/+C7oTYND8+Yaxa/Uny+n30tf+/Xh0JsGh+bNNoBfqT915akaxcEbxeVnDQ7NozcNDs1b2gA3ilFxoxgVN4pRcaMYFTeKUXGjGBU3ilFxoxgVN4pRcaMYFTeKUXGjGBU3ilFxoxgVN4pRcaMYFTeKUXGjGBU3ilFxoxgVN4qx8dTlV8vvu9f6S3U3inHq1+n0ckmNmr4coBvFOMVvir9Do3hZyUb5BHrTKAcicw1I/8Odh3eqmPyvV36vfD7qX/SmkefpTaN8Er1pTE/47q8gUbcXiHiUX6nTm0aepzeN8gn0plEOROYa0OfnRz0/vzSJYjwoetPI8/SmUT6B3jTKgcjSBrhRjIobxai4UYyKG8WouFGMihvFqLhRjIobxai4UYyKG8WouFGMihvFqLhRjIobxai4UYyKG8WouFGMihvFqLhRjIobxai4UYyKG8U4Nb5CfldehLpwoxinuJz/9Ht4te7CjWKcSnEqL/z+4kZVQaLykzTSMGlU3/fX4/6hN41rQm8a5TPoTaM9ZfPnw8v5h4/gRDE2yuX8w/98N24Uo+JGMSpuFKOysVGsrcGhXdGbRp7nJhvlE+hNoxyIuFFVORBxo6pyIOJGVeVAxI2qyoGIG1WVAxE3qioHIm5UVQ5EvqhRLK1RPmEjetPI89xko3wCt9koByJuVFUORNyoqhyIuFFVORDZqVGsrZHnWVsjz7O0Rp7fipts5HluslE+gdtslAMRN6oqByJuVFUORNyoqhyIuFFVORBxo6pyIOJGVeVAZLYBw+X8p66rL/3uRjFOcTl/svhSWdbWyPOsrZHnWVojz2/FTTbyPDfZKJ/AbTbKgchcA/hNcbm4+MaNYpxKOZq5nL9c1B64srbG9drP/0o7YWmNcqaNuMlGnucmG+UTuM1GORAJErX2cn7W1sjzrK2R51laI89vxU028jw32SifwG02yoHIXAPK5fzn59Qv30eNRANGbhSj4kYxKm4Uo+JGMSpuFKPiRjEqbhSj4kYxKm4Uo+JGMSpuFKPiRjEqbhSj4kYxKm4Uo+JGMSpuFKPiRjEqbhSj4kYxKm4Uo+JGMU5xOf/vU7/4ClDW1sjzrK2R51laI89vxU028jw32SifwG02yoHIXAPyL0CH97z27/VGcw1I7SmX8+do3fzt+3zVd4S1Nfrz/FXi174/s7TGubwW/fo/0e3neW6ykabnF/D2xM2fIFHDkzRqoJyouQbcLuef9MmNmm1Avpz/fH7pOt9HjUQDRm4Uo+JGMSpuFKPiRjEqbhSj4kYxKm4Uo+JGMSpuFKPiRjEqbhSj4kYxKm4Uo+JGMSpuFKPiRjEqbhSj4kYxKm4Uo+JGMSpuFGODy/lPr+Xvwo1inOJy/ssv/wK0mmuAf1M8Y64BqT/D5fzTRm147kH6FNbWyBfHs7RGnt+Km2zkeW6ykZYbPfcgdP74cn4nqpprAJfzu1FTogEjN4pRcaMYFTeKUXGjGBU3ilFxoxgVN4pRcaMYFTeKUXGjGBU3ilFxoxgVN4pRcaMYFTeKUXGjGBU3ilFxoxgVN4pRcaMYFTeKcc7tN+uZG8U4o75QfuJGMc4Yf7OeuVGMM8bfrGd/P8baGnmetTXyPEtr5PmtuMlGnucmG+UTuM1GORCiETPG36zbx8pv1s3MzMzMzMzMzMzMzMzM7Gd56rpuePeF4eOkvl+F2Uq//+S/X8rf+O1nI9hml+HuqR/vpU6n587PA7LNzkOUGLJ+8uzXimek2U9GFj526co7MtX7JSbeWng6+76WRuCcE1QC9VzunJ7mvyt3on68nSPgRP14TpTty4myfTlRti8nyvblRNm+nCjblxNl+3KibF9OlO3LibJ9OVG2LyfK9uVE2b6cKNuXE2X7cqJsX06U7cuJsn05UbYvJ8r2tTwC+cr0eoneJV+l/v4CKyfqx1sagfYq9X7+aj0nypZGoH8qd0+3q9Sb1z+YcqJ+vIURaK9SvzyVa4uf3ufq79/eDox3vZEo32Jhot5cpT7cR828lobvo46NwEiUb7E0Au1V6pf80lFl6g0n6i6805ZE+XoERqJ8i50j4ETdhcBIlK9HYCTKt3CijoTASJSvR2Akyrdwoo6EwEiUr0dgJMq3cKKOhMBIlK9HYCTKt3CijoTASJSvR2Akyrdwoo6EwEiUr0dgJMq3cKKOhMBIlK9HYCTKt3CijoTASJSvR2Akyrdwoo6EwEiUr0dgJMq3cKKOhMBIlK9HYCTKt3CijoTASJSvR2Akyrdwoo6EwEiUr0dgJMq3cKKOhMBIlK9HYCTKt3CijoTASJSvR2Akyrdwoo6EwEiUr0dgJMq3cKKOhMBIlK9HYCTKt3CijoTASJSvR2Akyrdwoo6EwEiUr0dgJMq3cKKOhMBIlK9HYCTKt3CijoTASJSvR2Akyrdwoo6EwEiUr0dgJMq3cKKOhMBIlK9HYCTKt1gagXJd+vn2wgf9+yv1Bk7UXQiMRPl6BEaifIuFEbg8NVeAnp+cqH+BwEiUn/63EOVHShSXp99e96DPr8wydz/lRN2FwEiUP3KiLm2iBjPvfp1f9+A8XP/OkPijRR9dr1cCI90+icBIt/rFr3vA0t6ssFAfLU3U8EoH7WuyzCaKD2wLAiNR/sj3UfnrHl/nnl/P+aveazf3ij9O1F0IjET5YydqGSfqLgRGotyJMoHASJQ7USYQGIlyJ8oEAiNR7kSZQGAkyp0oEwiMRLkTZQKBkSh3okwgMBLlTpQJBEai3IkygcBIlDtRJhAYiXInygQCI1HuRJlAYCTKnSgTCIxEuRNlAoGRKHeiTCAwEuVOlAkERqLciTKBwEiUO1EmEBiJcifKBAIjUe5EmUBgJMofO1GXp+518u78p9Of/D6gbzlRdyEwEuUPnajfT/nver3e5en84kTtjcBIlD9yovqn9pri/qk/OVG7IzAS5Y+cqPbd+U/np0u6w5pNFNcq52uubS0CI137a+pwfyUwEqe/XgmMRPkqXKu+MFHtu/OX64uz6fdVhe+j7kJgJMof+vuo9t35C3/V2x2BkSh/7Md6yzhRdyEwEuVOlAkERqLciTKBwEiUO1F7o18S5cdHYCTKnai90S+J8uMjMBLlTtTe6JdE+fERGIlyJ2pv9Eui/PgIjES5E7U3+iVRfnwERqLcidob/ZIoPz4CI1HuRO2NfkmUHx+BkSh3ovZGvyTKj4/ASJQ7UXujXxLln9HP+xAYiXInam/0S6LciXKiBPolUe5EOVEC/ZIod6J+XKLol0S5E8X+JMqdqAjlThT7kyh3oiKUO1HsT6LciYpQ7kSxP4lyJypCuRPF/iTKnagI5U4U+5Mod6IilDtR7E+i/FCJat+d/3e+eu+puwz/NuFE3YX9SZQ/cqLevDt/0fwLnKi7sD+J8kdO1Jt35z+9dN1wlfEbXKWeL1je8Id+SVwVveYi7XIDtEuarunT/uQtsT8p7z5/CvuT8rmzMxuUpgtb9WfFVeptoord30udfkmU+z6K/UmUH+qr3sy781+cqL2xP4nyR04Ur55R3p0/3U/13Wv3D96dn35JlDtR7E+i/FiJWsaJugv7kyh3ohT6JVHuRLE/iXInKkK5E8X+JMqdqAjlThT7kyh3oiKUO1HsT6LciYpQ7kSxP4lyJypCuRPF/iTKnagI5U4U+5Mod6IilDtR7E+i3ImKUO5EsT+JcicqQrkTxf4kyp2oCOVOFPuTKHeiIpQ7UexPotyJilDuRLE/iXInKkK5E8X+JMqdqAjlThT7kyh3oiKUO1HsT6LciYpQ7kSxP4lyJypCuRPF/iTKnagI5U4U+5Mod6IilDtR7E+i/FiJat+d/0/Xvc68BagTdR/2J1H+0Il6++78yS+/7sHe2J9E+SMn6u2782e/nai9sT+J8kdO1Jt3589eZgKVTleufs/vHr/hH/olXa/5AvtrT7+kob5f/LoHQ/WnGjrA/qThvflXvO4B51/zyg+bpM9bmKj23fnzR6/TV0AY+T7qLuxPovyR76PSvVOK1PDu/ClL5d/mOFF3YX8S5Q+dqIWcqLuwP4lyJ0qhXxLlThT7kyh3oiKUO1HsT6LciYpQ7kSxP4lyJypCuRPF/iTKnagI5U4U+5Mod6IilDtR7E+i3ImKUO5EsT+JcicqQrkTxf4kyp2oCOVOFPuTKHeiIpQ7UexPotyJilDuRLE/iXInKkK5E8X+JMqdqAjlThT7kyh3oiKUO1HsT6LciYpQ7kSxP4lyJypCuRPF/iTKnagI5U4U+5Mod6IilDtR7E+i3ImKUO5EsT+JcicqQrkTxf4kyp2oCOVOFPuTKD9Uotp3508fdcNVxm84UXdhfxLlj5yo9+/O374J9o0TdRf2J1H+yIl6++787QXrVXl3/mt5p/kN6JeU35k/3wb9koazf8J702/+wwrZn5RKy2exP2k4e8IGpenalv8plt5HvUuU76P+AfYnUf7QX/XevTt/dB/FB5vQL4lyJ4r9SZQfKVHle/H67vyX/C9d9+fdq7M4UXdhfxLlj52oZZyou7A/iXInSqFfEuVOFPuTKHeiIpQ7UexPotyJilDuRLE/iXInKkK5E8X+JMqdqAjlThT7kyh3oiKUO1HsT6LciYpQ7kSxP4lyJypCuRPF/iTKnagI5U4U+5Mod6IilDtR7E+i3ImKUO5EsT+JcicqQrkTxf4kyp2oCOVOFPuTKHeiIpQ7UexPotyJilDuRLE/iXInKkK5E8X+JMqdqAjlThT7kyh3oiKUO1HsT6LciYpQ7kSxP4lyJypCuRPF/iTKD5yoN9esV07UXdifRPn3SdT7a9ZvnKi7sD+J8u+TqPfXrN84UXdhfxLl3+g+KkzU61/76f6PLKzx/pp1s/uM16ybmZmZmZmZmZmZmX1vp9P/A7asMEFoz6r2AAAAAElFTkSuQmCC;" vertex="1" parent="1">
          <mxGeometry x="81.00248046875004" y="82.50986083984378" width="300" height="217.54" as="geometry" />
        </mxCell>
        <mxCell id="uut4hfN15O6eYL7KADeR-4" value="" style="shape=image;verticalLabelPosition=bottom;labelBackgroundColor=default;verticalAlign=top;aspect=fixed;imageAspect=0;image=data:image/png,iVBORw0KGgoAAAANSUhEUgAAAlEAAAGuCAMAAAHwiZMrAAAAAXNSR0IArs4c6QAAAARnQU1BAACxjwv8YQUAAABmUExURf////n5+WxsbFlZWcXFxY2Njenp6WRkZKurq7+/v6Ojo3l5efj4+Pz8/IuLi2BgYPHx8VxcXNvb29fX13h4eAAAAERyxIqKitnZ2cAAAACwUHp6esLCwvX19WhoaDg4OCAgIAAAADhF0kUAAAAidFJOU////////////////////////////////////////////wAN0MNxAAAACXBIWXMAABcRAAAXEQHKJvM/AAAXAElEQVR4Xu2d3XLiXLJEiYAI2n1FQPc4Zm583v8pzy5pIWnbu5xCqLGwcw3T5S6lRe3s/LD5kbT7GRx2r3xlnob/BHw9sKfeSGNfv6iz+G/A14193cS29/W/4Jn2dVMixL7+UGch9nUT3leLXttC7OvXx3/JXttC7OtMnZBqF6+xpf0O+1JatX2K0ortL9QOoX3kXBVKq7ZPUVq1fYrSqu1TlFZtn6K0YvuB2iG0j5yrQmnV9ilKq7ZPUVq1fYrSqu1TlFZsP8Qj/hk67bnTnjstfbhMtl+q7exsSqfdxhorlFZtn6K0avsUpVXbpyit2m6MeSwf/zvc3/akfeTjrm563tg/OvS0dnUDW97VKg9/D9tV9fu84vNd7W55eVDt6ga8q3f0yiYP29XHx4VMWfh8Vx/5RPnsu5JKKRiQSikYkEopGJBKKRiQSikYkEopGJBKKRiQSikYkEopGJBKKRiQSikYkEopGJBKKRiQSikYkEopGJBKKRie23fK/Kk9z+0vnaB6bs9uJnTK7SwQpFIKBqRSCgakUgoGpFIITgvfTDTfkYVPLf8x55LR6lVqY8xqdD8WOmg0uOmVhlVgpAKNh9L92OygAYxUoPFQGKlAAxipQOOhMFKBBjBSgcZDYaQCT+47PFULRircPlU8MvS/RMYTg8N6f/TPTjrO/XOUjnP/TKXjKuWPbop/DSMVnCsFIxU8lYKRCv9oKvZYoDEHRircPtX4O/v5fMlu7LFQ/hN+vzG7MVJhuoNL/cgwhTlmwx4LN/wDMFLhAf+C7LHAxgxGKnz7qdhjwVPB6S15l5c9Fr5gqu51htYHjdlj4QumSmGPBU+lYI8FT6Vgj4UvmOqYPaVnj4UvmCoeFJqDscfCF0yVwh4LnkrBHgueSsEeC18wVfw32PyNmT0WvmCqt/KwsL2pUthjwVMp2GPBUynYY+Grpmo9nWCPhS+aym9jG2O2TnmcOvLlVjjFUKf46m/39y9kMsB+t++fB25pqAEP1cJDzcVDzcVDzeUrh+J39AKNK1sfKp43dM8dNjRU/EDu3xz5EUPxvK9AA5ioQONKawAP1UHjiofyUAImKsx84cVDeSgBExW+y1Av/S8JWxrqXEba97+6VB+CvPuP5NNV5wMTFd5909SV66c6NvXPd8VDdSC84qE8lICJCh7qc5io8JOGYo8FGjNgosJ3Gar8NO5OorKhoeJp+69+qPKT+v3nqLlNf8p/2JjdmKgwPTrjk89gT1zZ7463OcUeC2xMYKLCgn++Kx6qA+EVD+WhvmIo9ljwUDUeqgPhlckA5efxn+aL++yx8PChunfbNzlUx4aGGvFQHQiveCgP5aGAPRY8VI2H6kB4ZTrAy+51az+Q48X9zf2WEC/utz+Txx4LXzDUFQ/VgfCKh/JQHgrYY8FD1XioDoRXpgP82R27E5psaKjut4TuJ/JfXmO/wh4L9RlW2GMBYZPL5CMAl+mL+/05YDuQwmHqyvmNobq/jbDHwhf8813xUB0Ir3goD+WhgD0WPFSNh+pAeKUeoD+H8saG2uTpk+O8zsYYY4z5ao67l/43hdM2rwSxGc7Fpv63l+vxDuWrvz+d5u9zxaDOo8nG1m/xP4u5DtgpOzUXOzUXOzUXOzUXOzUXOzUXOzUXOzWXn+oUr5JXsCnBTo2wKaHpAM/7ps8J7VTLgfNL71L5//BiwvvPc2wN3ouqYFMTzKlgU0IzK/vdS3fai91heH1q65nCnAo2NcGcCjYlzHXATtmpETYl2KkRNiXYqRE2JXx3p/hMRkX0Maci+jl2aiT6OXZqJPo5dmok+jl2aiT6OXZqJPo5dmok+jlNB8qzPZ4hD9iplgOn4XMJ/fmVAjvVdOAcJ8+MU2gOL7rYqdkO2Ck7NRL9HDs1Ev0cOzUS/Rw7NRL9HDs1Ev0cOzUS/Rw7NRL9HDs1Ev2cf+wUs1WwaV0wpyL63GdF9DGnIvo5TQeOu5fumPuX4WmfnWo6cP3k/uv4BNlOtR3gExyTlxLs1GwHVnaK2Sq6b1gK5lREn/usiD73WRH9HDs1Ev0cOzUS/Rw7NRL9HDs1Ev0cOzUS/Rw7NRL9nJWcYraK6DNbRfSZrSL6i+E+K6LPfVZEn/usiH6OnRqJfo6dGol+jp0aiX5O04Hhed/h3JWCnWo5MJ4F4Dg6FR9eP2S3yYkVR0p7cpLGkUv5FmarqHd5w+1S4D4r0gHKBNxnxYcdV7dmVt7ik/txXshXZ2pAODBgp+zUSPRz7NRI9HPs1Ej0c+zUSPRz7NRI9HPs1Ej0c+zUSPRz7NRI9HPs1Ej0c+zUSPRzmg7wyf3d7uXUlYKdajkwfHL/9/AEeff33SWX392YrSL6zFZRnvkvOAj/E9LXEsom7rMiey2h31tGMyvDJ/f3c49xYLaK6DNbRfSZrSL6i+E+K6LPfVZEn/usiH6OcGDATtmpkejn2KmR6OfYqZHo59ipkejn2KmR6OfYqZHo59ipkejn2KmR6OfYqZHo5zQdOO3fuvraX1o3sFMtB06cJ687YR7YqaZT11ddDnZqRDgwYKfs1Ej0c+zUSPRz7NRI9HPs1Ej0c+zUSPRz7NRI9HPs1Ej0c+zUSPRz7NRI9HPs1Ej0cz5z4HoygMBOfeLA9dT7HVzELoPZKqLPbBXRZ7aK6C+G+6yIPvdZEX3usyL6n4ATLf5ErIwxxhhjjDHGGGPanH5dX2TxKwifUux56Y/+GM+4aBqUOMW5NyqfeAnrB4MRU0qieqOGVznlK8Lfn5YBJUhdliZHX9mopgH7/TneXpgEykbNNcBGURU2iqqwUVSFjaIqbBRVYaOoChtFVdgoqsJGURU2iqqwUVSFjaIqbBRVYaOoChtFVdgoqsJGURXfzCg+DVzBpgQbNcCmBBs1wKYEGzXApoSmAcd9d4THKU6FBzaKOuXXbvd66s8dMWCjqFPineJiUvXBAxtFncJnD47nyadZuot+bBcOFqpgUxO8qWBTQpKo+DRLSRQfailsPFF4U8GmJnhTwaaElgHn+HzUy8vpdfKmuo2iKmwUVWGjqAobRVXYKKrCRlEVNoqqsFFUhY2iKmwUVfGkRnFiiIro401F9HNs1ED0c2zUQPRzbNRA9HNs1ED0c2zUQPRzbNRA9HNs1ED0c2zUQPRzbNRA9HNs1ED0c2zUQPRzbNRA9HNaBnA4/3m4oGPBRlGnxBugh2LU5JBiG9UyIN5Sfyn/j0OLr/RvqR+2+gfeVEQfbyou5VvwpuLjXqd/JInqD+effvaAulHwpiL6eFMRfbypiH5Oy4Dr4fw2akLTgPhv7nA4TD5HZqPmGmCjqAobRVXYKKrCRlEVNoqqsFFUhY2iKmwUVWGjqAobRVXYKKrCRlEVNoqqsFFUhY2iKmwUVWGjqAobRVUsNIrZKti0KnhTEX3usiL6eFMR/RwbNRD9HBs1EP2clgHDGfL34/HXNoo6hWOKd78nB6rbKOqUEqdDnPPg1UaNJImKzx6UMjEq3n8/X269MVtF6X/Q3XvDm4pLgbusiIXgTUX0Mw7Nzx4Ue3DIiRpoGtCdIT8+pvHPjGK2iu4bFoI3FdHnLiuiz11WRD9nrgE2iqqwUVSFjaIqbBRVYaOoChtFVdgoqsJGURU2iqqwUVSFjaIqbBRVYaOoCqFjtoroM1tF9JmtIvpL4S4ros9dVkSfu6yIfo6NGoh+jo0aiH6OjRqIfo6NGoh+jo0aiH6OjRqIfo6NGoh+TtMAzpC/fxuPU7dR1Cm/d90Z8gvjIaA2ijqFd4rLn7+6vwc2ijqFw/n7r2A4nL91u1yYraK0s7fUD8xWUe3yllu5H+6yIt5r5y4rijx5S/39jie3z86QX+C/wIITRZ3SnSH/8FL88mPUgDBgwEZRFTaKqrBRVIWNoipsFFVho6gKG0VV2CiqwkZRFTaKqrBRVIWNoipsFFVho6gKG0VV2CiqwkZRFTaKqrBRVIWNoipsFFVho6hTOJz/1+78p28UbBR1yvgGqN/XG2gZUOzpDuePaF2xUdQpw4c0xkDFZw8mR89/uDFbxeXSfu8/PsTAbBXRXwp3WRGfMeAuK0LPXVZ0O0ppGXU9nH/ikxPVNKA/Q/7rfnKKfBtFVdgoqsJGURU2iqqwUVSFjaIqbBRVYaOoChtFVdgoqsJGURU2iqqwUVSFjaIqbBRVYaOoChtFVdgoqsJGURU2iqqwUVSFjaJWcDj/7q37s8NGUadwOP/p1/QNUGoCs1VEn9kqos9sFdFfCndZEX3usiL63GVF9HNaBjTfKaYmMFtF9JmtIvrMVhH9pXCXFdHnLiuiz11WRD+nZUDxp/WWesrNh9Nnh/Mvh7usiD53WRF97rIi+gkHcTi/EzXSMoDD+W3UFGHAgI2iKmwUVWGjqAobRVXYKKrCRlEVNoqqsFFUhY2iKmwUVWGjqAobRVXYKKrCRlEVNoqqsFFUhY2iKmwUVWGjqAobRVXYKKrCRlEbDBfpD2wUtcF4VH/BRlEbDO+sB38/h9kqos9sFdFntoroL4W7rIg+d1kRfe6yIvqfgBENhs9qmM+5HtVvFHFUvzHGGGOMMcYYY4wxxhhjjDHGfBOO+/3+MPm64DePzWJ+d1c7eR2veVJakyP8jbmNU//wdB4epXa7F39swyzn0EeJEpw5r1QNn0gzPxmy8DmnfXdFpvFxicZ7Zu7OfF/mRuAQCeoC9dI9OB3bv5U7UT+elSPgRP14nCizLk6UWRcnyqyLE2XWxYky6+JEmXVxosy6OFFmXZwosy5OlFkXJ8qsixNl1sWJMuviRJl1caLMujhRZl2cKLMuTtRPgjMhS5Avwon6SRAYCfJFOFE/CQIjQb4IJ+onQWAkyBcxNwLn/uiq61GfL2/jwcVTnKhNQ2AkyBcxNwLH6gjQl/2pqx9wojYNgZEgX8TMCNRHqZ9eX1/3+/2fj7H6+/dslsNVbCTIb4bASJAvYmaihjNp9D/2Xrsjihvn0vBj1F0QGAnymyEwEuSLmJuo/jw/17P99D/1fn/82edE3QWBkSC/GQIjQb6I2RE47Pdvx3hM6n49P8UJyRq/nDtRd0FgJMhvhsBIkC9i5Qg4UXdBYCTIb4bASJAvwonaEgRGgvxmCIwE+SKcqC1BYCTIb4bASJAvwonaEgRGgvxmCIwE+SKcqC1BYCTIb4bASJAvwonaEgRGgvxmCIwE+SKcqC1BYCTIb4bASJAvwonaEgRGgvxmCIwE+SKcqC1BYCTIb4bASJAvwonaEgRGgnz3v5kgd6J+HARGgtyJMgICI0HuRBkBgZEgd6KMgMBIkDtRRkBgJMidKCMgMBLkTpQREBgJcifKCAiMBLkTZQQERoLciTICAiNB7kQZAYGRIH/uRJ2O+7fhIPVD+Xr/dmwdAcoXZgkERoL8qRNVX53/kF1H3Ym6CwIjQf7MiTofOaa4P0bv7ET9EwiMBPkzJ+rj1fnjkOLrD8GROO/BoT/+nVLwV7O+ulwuBEZy/SYCIyn77r6FwEj6vcNNXx3mn/fg3dX5g+vPwAl+jLoLAiNB/tS/R02uzv922L3Go9Mf/2a+NgRGgvy5n+vNw4m6CwIjQe5EGQGBkSB3ooyAwEiQO1FGQGAkyJ0oIyAwEuROlBEQGAlyJ8oICIwEuRNlBARGgtyJMgICI0HuRBkBgZEgd6KMgMBIkDtRRkBgJMidKCMgMBLkTpQREBgJcifKCAiMBLkTZQQERoLciTICAiNB7kQZAYGRIHei1ga/JMi3D4GRIHei1ga/JMi3D4GRIHei1ga/JMi3D4GRIH/uRJ2Ob/vpAXqn17fu0rI1TtRdEBgJ8qdO1O9j/Pk6XOz6dDz0FyuucaLugsBIkD9zooaj1HmUOh/PXP66xom6CwIjQf7MieLw9Ot5Dw5x8Gc7UdcDli//mvNl9kHaoX3ESHdDYCSxoHK7sD5Jv/fD7KPUi1kLbj0zE1UfpX6I614HH0584MeouyAwEuTP/Bj17ij1Dv/UWx0CI0H+1ImaybYThV8S5I+HwEiQO1Frg18S5E4U65MgX4QT1QD54yEwEuRO1NrglwS5E8X6JMgX4UQ1QP54CIwEuRO1NvglQe5EsT4J8kU4UQ2QPx4CI0HuRK0NfkmQO1GsT4J8EU5UA+SPh8BIkDtRa4NfEuROFOuTIF+EE9UA+eMhMBLkTtTa4JcEuRPF+iTIF+FENUD+eAiMBLkTtTb4JUHuRLE+CfJFbCpR+CVB7kSxPglyJyoDuRPF+iTInagM5E4U65Mgd6IykDtRrE+C3InKQO5EsT4JcicqA7kTxfokyJ2oDOROFOuTIHeiMpA7UaxPgnxTiToff8UhVhyg9zuO3jvu174GKH5JkDtRrE+CfEuJOkWghiNAe+qLFvc4UXfB+iTInzlR76+l/me/748yfocTdResT4L8qR+j6vMe9Bw/HlQc5z2IQ+w5Bv42bjjsP9S3HPbf7f+Ww/4fTpzK4DYDyjewPkm38/IdrE/S7X4hcx9U+ivx19fjbyaKLxaBXxLkfoxifRLkW3qMioenQvzi9FIep+Ivb1W6wIm6C9YnQf7ciZqHE3UXrE+C3IlS4JcEuRPF+iTInagM5E4U65Mgd6IykDtRrE+C3InKQO5EsT4JcicqA7kTxfokyJ2oDOROFOuTIHeiMpA7UaxPgtyJykDuRLE+CXInKgO5E8X6JMidqAzkThTrkyB3ojKQO1GsT4LcicpA7kSxPglyJyoDuRPF+iTInagM5E4U65Mgd6IykDtRrE+C3InKQO5EsT4JcicqA7kTxfokyJ2oDOROFOuTIHeiMpA7UaxPgtyJykDuRLE+CfJtJaq6Ov/ptfylcQlQJ+o+WJ8E+VMn6v3V+Qu/fd6DtWF9EuTPnKj3V+cPfjlRa8P6JMifOVHvrs4fvO75Ysr1KPVl4JckjjoPPX5Jup1fLgf8kkwvOf+YGxOyPkkxoPzvZgMurE/ybrqbbjMTVV+dP766XlG9xo9Rd8H6JMif+THq3dX5u7+1cKLugvVJkD91ombiRN0F65Mgd6IU+CVB7kSxPglyJyoDuRPF+iTInagM5E4U65Mgd6IykDtRrE+C3InKQO5EsT4JcicqA7kTxfokyJ2oDOROFOuTIHeiMpA7UaxPgtyJykDuRLE+CXInKgO5E8X6JMidqAzkThTrkyB3ojKQO1GsT4LcicpA7kSxPglyJyoDuRPF+iTInagM5E4U65Mgd6IykDtRrE+C3InKQO5EsT4JcicqA7kTxfokyJ2oDOROFOuTIHeiMpA7UaxPgtyJykDuRLE+CfJNJaq+On/5al9dsviKE3UXrE+C/JkT9fHq/PVFsK84UXfB+iTInzlR76/OX305IY5Sf3fU8sxbHESNX5Ii7b4FvySx7wC/JNO5HnNjQNYnKdLuu1ifpN/7vzagZ+5jVJ+fyQOTH6P+AaxPgvyZH6M+Xp3fifoHsD4J8qdOVEnQu6vzF7pzSlU4UXfB+iTInztR83Ci7oL1SZA7UQr8kiB3olifBLkTlYHciWJ9EuROVAZyJ4r1SZA7URnInSjWJ0HuRGUgd6JYnwS5E5WB3IlifRLkTlQGcieK9UmQO1EZyJ0o1idB7kRlIHeiWJ8EuROVgdyJYn0S5E5UBnInivVJkDtRGcidKNYnQe5EZSB3olifBLkTlYHciWJ9EuROVAZyJ4r1SZA7URnInSjWJ0HuRGUgd6JYnwS5E5WB3IlifRLkTlQGcieK9UmQO1EZyJ0o1idBvuVEVdfqn+BE3QXrkyD/Pok6/ebovQ8XU3ei7oL1SZB/n0Rxrf7GgepO1F2wPgny75OoxrX64e2v+en8H1m4hQ/X6jfmPsZr9RtjjDHGGGOMMcYYY4wx35vd7v8Bb2opCEY8IDoAAAAASUVORK5CYII=;" vertex="1" parent="1">
          <mxGeometry x="373.99894653320314" y="82.50697326660156" width="300" height="217.54" as="geometry" />
        </mxCell>
        <mxCell id="uut4hfN15O6eYL7KADeR-5" value="" style="shape=image;verticalLabelPosition=bottom;labelBackgroundColor=default;verticalAlign=top;aspect=fixed;imageAspect=0;image=data:image/png,iVBORw0KGgoAAAANSUhEUgAAAlAAAAGuCAMAAAEfS/gVAAAAAXNSR0IArs4c6QAAAARnQU1BAACxjwv8YQUAAABjUExURf////n5+WxsbFlZWcXFxdfX12BgYPHx8enp6WRkZKurq7+/v1xcXNvb26Ojo3l5efj4+Pz8/IuLi3h4eAAAAI2NjXp6esLCwvX19WhoaNnZ2cAAAERyxACwUDg4OCAgIAAAAIBDoo0AAAAhdFJOU///////////////////////////////////////////AJ/B0CEAAAAJcEhZcwAAFxEAABcRAcom8z8AABtVSURBVHhe7d1Rc+K6soZhqkyKIilyway7vXfO//+XpyW9YItYdFuLeAz5nskkGbmxpaYHjCKc3W9w3Nunf8r3vaY3f+Fdve+G0/Z6Vay/q/8kfP/fhO8fv6v3w/i9x9mV3X+P2lX20rs6xavd21XyArv6X/LDuxo+0vdvIXlXb3lXp7yr02mfPjY9wOzyfYltKpuX72oai7K5vavB/j5oV8kr7yo9Hj9oV+eU98fsKqt39T0Wrc3b3tX09KMVi9bmcvP3/fdq/x6L1ubLzZNX3tUxPyCX77fTq+z1d9V6ostPc5ePsvmUN7/lzWx5ggHytRWL1uYf2pU8tSNfxZGeBR/k/PxpL48MxfSRoYO7K0tXkLerj8ftaoFn3FWe/Ii6v6tFtryr78+DHdxd2ePMiTMZR95VOZOZnugsuuuQd7XSAEcltK1sX7yrudCyvbUrS9n4gFxCi++hK/aqUkKLudCyfZ1djY+iJbSYCy3b7+xqVEKLudCyfcGu2qHe9gkv1Ns+4YXe337OEym4H+ptt0eY8WTmfqi/fcIL9bZPeKHe9gkv1Ns+4YV62ye8UG/7hBfqbZ/wQr3tE17o/e2nIc068TyYQ8sLel6xX17M54/mzDb7msqhWxhgxQv1tk94od72ZSd+8tKOVg3bq4dhl2ek//YsVOPo6tQ3m+9UrvH0AxNlasYqncrPSxkNjr/aqfzEmdGA7Xdq2H3sDvnl2z+nfJb0oE/0yLxNm8vpWHZtyp90971Kp9JPPIfdkJ+Rt5Op9GNY5im206kJdcrQgNU7lV8EZcFOvafFLD9c6PTIBDtlZy0fm+vUSJ0yBCLWKXZpaAC7NDTM47Zmeafyg2d53beZTg2n/dmeZvL328nUhDplCMT2O5VOh+1h3TxbptilUaeMOmUIxPTo9mBuD53lLCG9/Loqc+fZW5lBz25fuDVxW3MqP4jO2jfX3fdCnSrPxmZDnUpT1sWWMnWlThkCsflOnXefgdNhdmnW6NT78JF6NPe6j12a1TM1oU4ZAvEkncqv/jbWqfKzGRGRjfq4nnpuyBYfOIfTBys4ROS3yyubzxt7pBp2+935fNrW41T+gXb8PUzya/D6ytCwBfTI0FDwms/QsCp6ZGgo6JGhYVX0yNBQ0CNDw6rokaGhoEeGhnn2MFVW4TwWPTI0FPTI0DDvup55shbtAZ/okama6ZGpw+unuvd8FZ/Ho0eGhoIeGRpWRY8MDQU9MjSsih4ZGgp6ZGhYFT0yNBT0yNCwKnpkaCjokaFhVfTI0FDQI0PDquiRoaGgR4aGGXbOORxOX/zrkeiRoaGgR4aG7455pcSPnKPTI0NDQY8MDd/lH/bZ88z0rZEPQo8MDQU9MjSsih4ZGgp6ZGhYFT0yNBT0yNCwKnpkaCjokaFhVfTI0FDQI0PDquiRqX42Q48McauiR+ZlOvVDr9rpkenp1PXx/BS85EQMPTKnyaKiPT0ydgo8/aATxfuw/5GL49Ajo0K/jx4Zdeo+emQe2Sl2aWhYhtuaFTrFLg0NDdzWvESnjrt9c1UCuzQ0FOzS0NDAbU1XpxrYpaGhYJeGhgZuaxbffent2vlqDt+xS0NDwS4NDQ3c1qjQaWjgtkadoqGB2xp1ioYGbms6OvU+NCYT2KWhoWCXhoYGbmt6MmU9mp1KYJeGhoJdGhoauK3p6VTrhQO7NDQU7NLQ0MBtzQ/VFHs06tQMdmnUqfvYpVGn7mOXZuVOpXdGv4+zCRV2aVbuVH5z30X6wdvVdIai511P05/3TW/PbQ1xF3TC2LfWq/nHdHZpVs7UPezSqFP3sUujTt3HLo06laWLqMz+vI9dmr+QKXus8l62s0ezVqcsU9vrVAu7NOrUfezSqFP3sUujTt3HLs3KncoXCmosaGaXZuVO5dPhS59uft7HLs3kdPatXGw3u/mBXfUxvfl+entua25uQydMOh1+H3Q6fEXcMuzSqFP3sUujTt3HLo06dTFeXGKKXZq/1KnJNMdmbOt9MyIiIr/S4T0/I3f9brBfxbJ02tvfYbK465/fjBx8Y6/Zedk+rtZtBv8Ci8auRAUpUUFKVJASFaREBSlRQUpUzU6cPtKK/Xc7k6rOzJWomiUqnZTbl3zKOTnhZH3VbzRbJOllS64pq6jyO3kKVVSQEhWkRAVtOVH84KnCpof4rYniJ3cVNs1TokZsmqdEjdg0rz3241f5gfF5XHajRM1IZ50pU8fLRKdRomak1zH28mUYvsYrmSlRQUpUkBIVpEQFKVFBSlSQEhWkRNXe7XS8XHpgeJ6pYHJTYdMcclNh07y5saf1GeUkM89ujlOcaSqYdzNsDrmpsGkOuamw6bv0joq5RJ3Sip/9h52bD+n1yyRRfN0iclNh0xxyU2HTvEVjV6KClKggJSroGRPFGzcq1kxuKim8SYkapfAmJWqUwpvaYz+WCbthGC97pUTNuEwFp7OqCyVqBlPBhpczRokKUqKClKggJSpIiQq6H0zvKmxaAQespHZyU7FmclNJ4U1/L1H0rsKmHhywktrJTcWaOWAlhTcpUaMU3jQ3dt6q9747nXen6eVolajadSrYMla/X+/uVDC9q7BpDr2rsKkHB6y8WXfJTeXtbXJFyVF1KZ3bj7lEnfPHdQ7YztGhigpSooKUqCAlKkiJClKigpSoICVqRprhLL9mJ/ojdXpXYdMceldhUw8OWEnt5KZizRywksKb7iUqvWlvmqeOM/P0TrcGeldhUw8OWEm9IjcVC+eAlbKjWfv59+tl6bXLfn8eJm/Y66ooOldJ4fSukto7ccBKaueIFWvmgJUU3nR/7DeUqCAlKkiJClKigpSoICXqBusz0u+G2H/p9CCbG/t1fYalaMHyaXpXsWY6V0nh9K6S2jtxwEpq54gVa+aAlRTe1EhUWZ9Raim6SIPeVayZzlVSOL2rpPZOHLCS2jlixZo5YCWFN90f+w0lKkiJClKigpSoICUqSIkKUqJmfJYTqMP7dIaTr/PoXcWa6VwlhdO7SmrvxAErqZ0jVqyZA1ZSeFNz7Oms/HJ6fvHP3bfr0buKNdO5ytvbk00FNy7dlvCmvTpRfJ1H7yrWTOcqKZzeVVJ7Jw5YSe0csWLNHLCSwpvuj/2GEhWkRAUpUUFKVJASFaRE3WAqOH3RVDDmxs5UcP6iqWA0EpWmgi8zwpoKTu6P/YYSFaREBSlRQUpUkBIVpEQFKVFtvHevUKLarjPCCb9proHeVayZzlVSOL2rpPZOHLCS2jlixZo5YCWFt5GDlst790REREREREREbhzLm9Qny8hk1ntJkhLlSG/lz4maLD34wxTWr9SqmAOJMteJO2+S76U1B/8nfyRKVNIcfP5NzoP91zvSoESFKVFBSlSQEhWkRAUpUUFKVJASFaREBSlRQUpUkBIVpEQFKVE3ht1HXmT38ec6J5UpUTeYBd79OStRVzODT2s2U37Oacoufr3SFzcz+Mss8Dtzm+MMJ5cA+JXmquQ6C3ybKL7+SnODz7PAaQY4/9dj5twoUUFKVJASFaREBSlRQZtOFG9/mWLLYyhRQb81UbyhqsKmeUrUiE3zlKgRm+YpUSM2zVOiRmyap0SN2DRPiRqxaV578JcZu6/yxShRcy6TUsfrdJQSNefAfPBhr0RlrcFfl0+PE5zbngomOVPpQrsNe3JTYduc9m9DO5QfxZyGyU8XVFFzvtJ121KO9F8vWzJ4JSpIiQpSooKUqCAlKkiJClKigpSoICUqSIkKUqKClKggJerWkKd/z1/Dbvc1DMHrvv9lJGeKLbPITYVN8+YGf12ayETLhRJVGy95YJ+VKMwM/jILvNsd069c+ByvgHv3l6H9ZSRnii2zyE2FTd+lyeC5irosyOd/YPlvaFRRN4b04PS1+9idT+mTHsyTJYNXooKUqCAlKkiJClKigpSoICUq6BkTxa+jqKR2clNJ7U1K1Ci1NylRo9TepESNUnuTEjVK7U1K1Ci1N7UHP5kPhhI1ZzofDCVqRjUfDCVqxs18cPZ0U8Gn/Ru5qby1VgXv0/Lf+Q9vVXDy1FPB5KaS2slNJbU3NQefVwUzHwwlKkiJClKigpSoICUqSIkKUqKClKggJSrofiy9q7BpDRxxKjWTm0pqJzeV1N6kRI1Se9PfSxS9m2JLF444lZrJTSW1c8RKam9SokapvUmJGqX2JiVqlNqb5gbPRZXP6SIa4/ymEvXNdc5uf1CiLmYGf7mocr66a3VR5btTwfSuwqZZ9G6KLV044lRzKtg2cMTKzezv9GN+VfBluvy9zG1eL3ygirrBT6rK1d+VqGJu8NdfrTecF1xUmd5V2DSL3k2xpQtHnErN5KaS2jliJbU33R98TYkKUqKClKggJSpIiQpSooKUqCAlKkiJClKigpSoICUqSImaM50PhhI1ZzofDCVqRjUfDCVqxnU++PO61tW5qDK9qzCfPYveTbGlC0ecSr0iN5UUzhEreRhz0qR5s0pu5oMTVdSc6Xww+hJF7yqpnd5NpeZeHHEqNXPASmrniJXU3nR/8DUlKkiJClKigpSoICUqSIkKUqKClKggJSpIiQpSooKUqCAl6sahXERjd06Td8PXv5zhpHeV1E7vplJzL444lZo5YCW1c8RKam+aGzxTUcfx2geFElW7/Gq9yXRwoUTVroWUEnVzUeU76F3FmmcXMKd12PRuKs/pduKIU9b6mKngNBk8V1GXH8CUROX/hpkq6gYXVc6lFb+oMr2rpHZ6V0nt9G4qNffiiFOpmQNWUjtHrKT2pvuDrylRQUpUkBIVpEQFKVFBSlSQEhWkRAUpUUFKVJASFaREBSlRc6bzwVCi5kzng6FEzajmg6FEzbiZD87+Oe3zr5qbR+8q1tyYCp69lkXez3JpavdHVwU3poKz63zwXhWVNQd/nQ9WorL7g68pUUFKVJASFaREBSlRQUpUkBIVpEQFKVFBSlSQEhWkRAUpUTeYBc5ftCoYc4NnFjh/yXNSUKJqzAKXL0oUZgbPLPBlMrhaFZxnXefRu8rb2/xUcOOyxvlSDMs/Wod/a0xEP+yiymUW+DoZnP4bZqqoG3kWeEi/XO+kVcEX9wdfU6KClKggJSpIiQpSooKUqCAlKkiJClKigpSoICUqSIkKUqKClKg7jpNLlipRd1yvrWyUqLa0gnNM1F30rpLa6V0ltdO7qdTciyNOpWYOWEntHLGS2ttIQsP12sri+DO9Tre05Wsri4iIiIiIiIiIiIiIiIi8gOMwDJeL3J3se8O/RBb7zO/UO/N+vdMw/g5skeUO5cHpNJQVdyoo+Xf2paD4UnxSXVOsR5PfhwoIOgzv6ctH9ch0eQKcWLpfeRGL7/h9qqhcTx/2wJSv1X0erm/sv1JB/VI/dceroH4pFZQ8lApKHkoFJQ+lgpKHUkHJQ6mg5KFUUPJQKih5KBWUPJQKSh5KBSUPpYKShwrf8Wnh73TZ0/nr0z7vyxJgrTYQBO/4euHvbnc47s9n+9pcsamC+qVid/zpmB+cTpd1mqfjaZcLaq+Ckkrsjr9Z+Ls/2nNcLqhsfglw/l318tvECqpe+JvfO/Vlfy91pCXAchG84ycLf7942suPUHkJ8J/0gHVDBfVL/dQdr4L6pVRQ8lAqKHkoFZQ8lApKHkoFtTH8hhoP0dujgtoYCsZD9FL8giQX4R1UUBtDwXiIXop6cRHeQQW1MRSMh+ilqBcX4R1UUBtDwXiIXop6cRHeQQW1MRSMh+ilqBcX4R1UUBtDwXiIXop6cRHeQQW1MRSMh+ilqBcX4R1UUBtDwXiIXop6cRHeYfEdfzq+p9Us45K6j2FcajdSQXWiYDxEL0W9uAjvsPSOP6R6ui61M59/Jms3RyqoThSMh+ilqBcX4R2W3vE3i4EPqZjmC+p0Ou3TmlB9WvSJgvGcTm/NXdz5RL242nu4/ym6BHh0vU55/lIer/QI9UAUjIfopagXF+EdFt/xZf14tYpcBfVAFIyH6KWoFxfhHZbf8fktCukMKl1WOlNBPRAF4yF6KerFRXiHn7rjVVCdKBgP0UtRLy7CO6igNoaC8RC9FPXiIryDCmpjKBgP0UtRLy7CO6igNoaC8RC9FPXiIryDCmpjKBgP0UtRLy7CO6igNoaC8RC9FPXiIryDCmpjKBgP0UtRLy7CO6igNoaC8RC9FPXiIryDCmpjKBgP0UtRLy7CO6igNoaC8RC9FPXiIryDCmpjKBgP0UtRLy7CO6igNoaC8RC9FPXiIryDCmpjKBgP0UtRLy7COwTv+FO6gt114e9nWgV1TBeT1lWAH42C8RC9FPXiIrxD7I7/tvDX5H+ooB6NgvEQvRT14iK8Q+yOv1n4u/szDOUyruXC9zNFpYLqRMF4iF6KenER3iH4CFUt/MXxuq5u/O4qrSnfp4XPb3n1sz6iHxSM5/ZmwQ/qxXV7O//DPuV7PFhQMwt/vYLiG1mGgvEQvRT14iK8Q/SOz89t6antwx6lTuky5bm48nrgqsyggupEwXiIXop6cRHe4afueBVUJwrGQ/RS1IuL8A4qqI2hYDxEL0W9uAjvoILaGArGQ/RS1IuL8A4qqI2hYDxEL0W9uAjvoILaGArGQ/RS1IuL8A4qqI2hYDxEL0W9uAjvoILaGArGQ/RS1IuL8A4qqI2hYDxE7/4XRDj14iK8gwpqYygYD9EqKHFQMB6iVVDioGA8RKugxEHBeIhWQYmDgvEQ/QIF1VoMfEMF1YmC8RD9/AXVXAx8QwXViYLxEP38BdVcDHxDBdWJgvEQ/QKPUPcXA19NlgDrz5I/FIznLS+5PZ2oFxfh1IurRC+Vriy9uKDuLwa+0iNUJwrGQ/QrvMqbXAV4uhj4hgqqEwXjIfoVCipGBdWJgvEQrYISBwXjIVoFJQ4KxkO0CkocFIyHaBWUOCgYD9EqKHFQMB6iVVDioGA8RKugxEHBeIhWQUWQMxfhr4WxeYhWQUWQMxfhS5EzD9FrY2weolVQEeTMRfhS5MxD9NoYm4doFVQEOXMRvhQ58xC9NsbmIVoFFUHOXIQvRc48RK+NsXmIft6COhyHr8u6393h/DUMecnK3lqHr+NjlwCTMxfhS5EzD9FrY2weop+2oD6/r4J6/7HLSpMzF+FLkTMP0WtjbB6in7WgTsfv6zQ/B/u0V0E9GGPzEP2sBXW7ktz8Gd/q8nl9Lhz9myXA5Mw1ucmSP+TMM7nFmn8Ym4clwG/Ui6vs/YeXAC+4CnB5I8L49paPr+ma8vOfbydReoTqxNg8RD/tOdQ+VVSup1RK+V/ZOT02/dFJ+eMwNg/Rz/sqbykVVCfG5iFaBRVBzlyEL0XOPESvjbF5iFZBRZAzF+FLkTMP0WtjbB6iVVAR5MxF+FLkzEP02hibh2gVVAQ5cxG+FDnzEL02xuYhWgUVQc5chC9FzjxEr42xeYhWQUWQMxfhS5EzD9FrY2weolVQEeTMRfhS5MxD9NoYm4doFVQEOXMRvhQ58xC9NsbmIVoFFUHOXIQvRc48RK+NsXmIVkFFkDMX4UuRMw/Ra2NsHqJVUBHkzEX4UuTMQ/TaGJuHaBVUBDlzEb4UOfMQvTbG5iH6FQqqsRj4hgqqE2PzEP0CBdVaDHxDBdWJsXmIfv6Cml8MrIJ6GMbmIfr5C2pmMfB5pp5svywJfVuOnLkIX4qceYheG2PzWGRa1BtfAlwwNpfdcUs/sLSgnMXAV3qE6sTYPES/wDlUazHwDRVUJ8bmIfoVXuXFrFhQpMxFuAoqgPAOKqgWotfG2DxEq6AiyJmLcFLmIlwFFUB4BxVUC9FrY2weolVQEeTMRTgpcxGuggogvIMKqoXotTE2D9EqqAhy5iKclLkIV0EFEN5BBdVC9NoYm4doFVQEOXMRTspchKugAgjvoIJqIXptjM1DtAoqgpy5CCdlLsJVUAGEd1BBtRC9NsbmIVoFFUHOXISTMhfhKqgAwjuooFqIXhtj8xD9tAV1Or6nlSuXpeT7YSgr7E5zi+sSFVQnxuYh+lkL6pDqabqs7rIGeAtXASZlLsJVUAGEd4jd8d8X/vJt/p37c0XFVYCXfuR1quTMlYNPJ1LmeuMA5MyT974+xuZJoWkwjM2V4g1jc03vk/hHfAnw4VI+14Kq3qVw/P5GKj1CdWJsHqKf9imvvG1q8uap6bsUDiqox2FsHqKftaBSAQ1fx/TU9mGVVJ7ohj+H1GxfS0hFBdWJsXmIft6CWkoF1YmxeYhWQUWQMxfhpMxFuAoqgPAOKqgWotfG2DxEq6AiyJmLcFLmIlwFFUB4BxVUC9FrY2weolVQEeTMRTgpcxGuggogvIMKqoXotTE2D9EqqAhy5iKclLkIV0EFEN5BBdVC9NoYm4doFVQEOXMRTspchKugAgjvoIJqIXptjM1DtAoqgpy5CCdlLsJVUAGEd1BBtRC9NsbmIfoFCqq1GPiGCqoTY/MQ/fwF1VwMfEMF1YmxeYh+/oJqLga+Ua4CnFepLkbOXCnWjkHKXHnf+9OJnHmma1tX+Mi9M4zNk0KfeAnwyFkMfKVHqE6MzUP0CzzlfVsMrIJ6KMbmIfr5Cyqfhn9bDHwsmyZUUJ0Ym4foVyioGBVUJ8bmIVoFFUHOXISTMhfhKqgAwjuooFqIXhtj8xCtgoogZy7CSZmLcBVUAOEdVFAtRK+NsXmIVkFFkDMX4aTMRbgKKoDwDiqoFqLXxtg8RKugIsiZi3BS5iJcBRVAeAcVVAvRa2NsHqJVUBHkzEU4KXMRroIKILyDCqqF6LUxNg/RKqgIcuYinJS5CFdBBRDeQQXVQvTaGJuH6KctqHrh7/gvXQX40Ribh+hnLah64e/kX7oK8KMxNg/Rz1pQ9cLfyZc7VwHmmw7kzEU4KXMRroIKILxD8BGqlBCLM78tA569aGteUd71h5y50oJy+0PKXGXn4TXlZYn0ekr3wmvKuQ1jczF4xubKe19uH76sdL3w92YZsK4C/ECMzUP0sz5Cpee3y8LfL3tcys906V+6CvCjMTYP0c9bUEupoDoxNg/RKqgIcuYinJS5CFdBBRDeQQXVQvTaGJuHaBVUBDlzEU7KXISroAII76CCaiF6bYzNQ7QKKoKcuQgnZS7CVVABhHdQQbUQvTbG5iFaBRVBzlyEkzIX4SqoAMI7qKBaiF4bY/MQrYKKIGcuwkmZi3AVVADhHVRQLUSvjbF5iFZBRZAzF+GkzEW4CiqA8A4qqBai18bYPES/XkEdjl/D9ZLAEyqoTozNQ/SrFdThk5VR31aWq6A6MTYP0a9WUKdjXrQ5cyFgFVQnxuYh+tUKikqauW7r1z/yO/0fFdDlMNxeBl/k39inilI9iYiIiIiIiIiIiMir2e3+H58XAn/FvodPAAAAAElFTkSuQmCC;" vertex="1" parent="1">
          <mxGeometry x="663.9974284811583" y="82.50779971852023" width="300" height="217.91" as="geometry" />
        </mxCell>
        <mxCell id="uut4hfN15O6eYL7KADeR-6" value="" style="shape=image;verticalLabelPosition=bottom;labelBackgroundColor=default;verticalAlign=top;aspect=fixed;imageAspect=0;image=data:image/png,iVBORw0KGgoAAAANSUhEUgAAAlAAAAGuCAMAAAEfS/gVAAAAAXNSR0IArs4c6QAAAARnQU1BAACxjwv8YQUAAABjUExURf////n5+WxsbFlZWcXFxdfX12BgYPHx8enp6WRkZKurq7+/v1xcXNvb26Ojo3l5efj4+Pz8/IuLi3h4eAAAAI2NjXp6esLCwvX19WhoaMAAAERyxNnZ2QCwUDg4OCAgIAAAAJryQfwAAAAhdFJOU///////////////////////////////////////////AJ/B0CEAAAAJcEhZcwAAFxEAABcRAcom8z8AABvBSURBVHhe7d1hU+M4tK3hVDkUFSj3h3R/OqcO9///yyvJbxwpWNpbmuB2w3qGaXqUhSNt9oRgFHP6CS7n8Mef5e/P8I0P9Xaa5r8xq/+J+Pv/Rvw9950P9fYa/njOocLnT2W/sQ41+7vdOlT0tw71f5F5qCVbtdzcf6iN7HJz9VDTe/jjz8siZfl7yvJ3LDenQy03z+c5vqU2x3NmlXzrQ03hX9VqsdxcPVR8PH44VDVr3HyNdX/OoZJvfaj86YeRbd/8dv7c7bWsOavoOx/qkh6Ql78fZ1bJ9z/U5y90c8ouX+d4G/g6mLJHWCDvjaxxc/LEQ8k/7cJ7McSvgk9y7Sn78v/g4j/+P/iPHiqUy8k61PvzDtXhXzxU/tXQ1D5Ul6cfyvXFa4nWLbd3H2orutzeOFR4nCmeyCxSlL/fLLenQy1PdHiSw4FyKcrfU5S/3yy3p0N9+QLvluhiK7rcvsOhQsnuD8hLdPE5uuOsCkt0sRVdbt/nUPdHUStq3Z6xotbtGStq3Z6xotbtGSvavv2aTqSgHbVuD48w9ycz7ah9e8aKWrdnrKh1e8aKWrdnrKh1e8aKWrdnrKh1e8aKWrdnrGj79nmKZ53yr3NzivIdO9+yL28b39Evt3CsXIoeYYEFK2rdnrGi1u19T/zkW7uEbjheP0yndEb6fhLrUDQpr+NMKvV4/IHJsyeVHm0TBpAeeRMG2jSpgIE2TSpgYMt0ej+9pm/f/sxPdGZGASNgRgEDN2k2n+jTFzDQdphJxZ94TqcpfUU+TqXij2E5T/HDPn3pqX3yLSfFIQMGwCEDBrbxscHApN7iZpatRueQAQPgkAED2/jYYGBS4ZH0/XCTutOkAoJtx5lUevBcvkIfZlLTfL6GLzPp7/r0BQTb/rVJcchgn0nFp8PhYT040KTuNKmAYJsmFRDcEB7Mw0Pn8izhZZ6zNw4ZvCxn0JPGN24lPjbIP5wfVycEb9J0PtGnLyDYdqRJLV+NgwNNKp6yXujTFxBs06QCghuup1+Op8McMthjUm/Te5yR9X0fhwx2qVRGkwoIth1tUum7v4NNavnZjIjIQb2vTz0P5CBTKr6eTPM7Ozj+rocvcsegSXlpUl4Hn1Ta2Xw9xCPVfVLT6Xy6XueveJziuXDAAHgu/OnZ8H1S6Qfa/tcw9WBGAQNgSo1JfSFmFDAApqRJrZhRwACYkia1YkYBA2BKmtSKGQUMgCkZkwoPU8sunOdiRgEDYErGpNb9zPw44jmWVyAkjIApPf4U5FxM6i1dxef5mFHAAJiSGn3FjAIGwJQ0qRUzChgAU9KkVswoYABMqTWp8Jxzep0/+K9nYkYBA2BKjUld0k6JL3mOzowCBsCUmpMKEwpfZ/KXRj4JMwoYAFNSo6+YUVA5uU/uRpN67qQ4ZMBAHz422GFSHDJgoIKPDb7NpGrftXPIgIEFhwwYqOBjg5FJrY/nMy+1BYcMGFhwyICBCj42eFletpvMZz44PB3OX797notJvU3n7YvjcMiAgQWHDBio4GMDNToDFXxsoEkxUMHHBpoUAxV8bPAtJnU5nau7EjhkwMCCQwYMVPCxwdCkKjhkwMCCQwYMVPCxQfenL75cO13N4TMOGTCw4JABAxV8bKBGZ6CCjw00KQYq+NjgR02KQxYH/cpJvU2VkwkcMth/UvHp8OapBA4Z/IVJeb5x4JD7TaqGQwaaVBuHDDSpNg4ZaFJtHDLYeVLxldFv97MJBQ4Z7Dyp9OK+m5f8RU/5D+yy1y25X/Vkv+yJHLKf94UahVltP6ZzyGDnSrVwyECTauOQgSbVxiEDTSqJF1HZ/Hkfhwz+QqXCY5X5bTuH3G9SoVLHm1QNhww0qTYOGWhSbRwy0KTaOGSw86TShYIqG5o5ZLDzpNLT4ducqj/vO9+fz+Y/7yt/Xle+lT8u5IOD/Olw+TH3ScWnw2+Tng7zwZrUio8NNClyFXxsoEmRq+Bjg7FJ3S8ukeOQwV+aVHaa4zC+4nUzIiIi0uX1LX1Frl1/TW5CleZz+HfKNnf9+clqT+TC9+x8237fret7Ev9N9SxehXJSoZxUKCcVykmFclKhnFSoUnji9B537L+FZ1LFM3MVqhQKFZ+Uh3fpKWf2hJMNVkfESd0CN23ibG+OWyq2uiR+25J6KnTU8jt5FkfuKGpT4KZNFCfHLRU9i1ehnFQoJxXKSYVyUqGcVKgtl4/lB8bX+7YbFWpDfNYZK3W5negMVKgN8fuY8O3LNH3cr2SmQjmpUE4qlJMK5aRCOalQTiqUkwpVegtPx5dLD0z/zqlgalPgpk0UJ8ctFRuLj/szlieZ6ezm/RTnn/nhNQ0HQm0KL8UrIso3ipP7lMneNk8Fz3HHz/k9PDef4vcvWaF4f0TUpsBNmyhOjlsqehb/LxaK3eOFOE5xcnG4ToVaxeE6FWoVh+ueVyhmV+CmHXCHhThObQpxnOLk4nDdXysUsytw0wjusBDHqU0hjnOPuThcp0Kt4nBddfGX5YTdNN0ve6VCbbidCo7Pqm5UqA2cCg74diZQoZxUKCcVykmFclKhnFQoJxXKSYUq8VK9t9N8Pc355WhVqNJ6KjhUrHy9XvNMMLMrcNMWZlfgphHcYeHlZc4um3MXTxFzj7nH07/52+ap4Gt6W88Bh+foUEc5qVBOKpSTCuWkQjmpUE4qlNNYoZhdLg4zu0IcH8QdFuI491iI49xjLg7X1RYfz3Auv2bH+yN1ZleI48wuF4eZXSGOD+IOC3GceyzEce4xF4frGoWKL9rL63T6w7PgbcyuEJ/SMrtcvIY7syvE+CDusBCGt5+Zv2w/M2+qdkn83uV8vk7ZC/bUUU4qlJMK5aRCOalQTiqUkwr1gP0Z8XdDnD/09GCxsfh1f0YoUcf2aWZXiOPMLheHmV0hjg/iDgtxnHssxHHuMReH67YLtezPWHrpv27SYHa5OMzsCnF8EHdYiOPcYyGOc4+5OFzXXnxJhXJSoZxUKCcVykmFclKhnFSoDb+WJ1Cvb/kZTt5vY3aFOM7scnGY2RXi+CDusBDHucdCHOcec3G4rrb4+Kz89vT85s8Lv4pz843ZFeIpYmaXC6Nb107b71Tw5h6R5UDb8l+AVOJFe2WheL+N2RXiOLPLxWFmV4jjg7jDQhznHgtxnHvMxeG69uJLKpSTCuWkQjmpUE4qlJMK9YBTwfGdTgXfbCyeU8HpnU4F32wXKp4Kvp0R1qngpL34kgrlpEI5qVBOKpSTCuWkQjmpUHW8dm+hQtWtZ4QjftNcBbMrxHFml4vDzK4Qxwdxh4U4zj0W4jj3mIvDDRSh4vbaPRERERERERGRB5flRerZNjLZ9LYUSYUyxJfyp0JlWw9+cwbrZ6IIj14pVLCeuDPO8X1v1cX/Tm+RChVVF59+k/MU/te7MKBCualQTiqUkwrlpEI5qVBOKpSTCuWkQjmpUE4qlJMK5aRCOalQD6bTe9pk9/57PSeVqFAPOAt8+n1VoVYbi497NmN9rvGUnf96pX8Z2zYL3LSFbZsFbtq2sfjbWeA3zm3ez3ByDYBDojYFbtpCbQrctG2rS9azwI+F4v0hUZsCN22hNgVu2ra1+HQWOJ4BTv/rceY8UKGcVCgnFcpJhXJSoZxUKCcVykmFclKhnFQoJxXKSYVyUqGcVKhNtzN2H8u7QIXacjspdVlPR6lQW145H/x6VqGS2uLX7dP3E5ycCk6/tPdwf2xfgHe9+dMf1KaQ3fz5j2pHLT+KmafspwvqqC0f8bptsUb6Xy/pWbwK5aRCOalQTiqUkwrlpEI5qVBOKpSTCuWkQjmpUE4qlJMK9WhKp3+vH9Pp9DFNzuu+/2XUpsBNW6hNgZu2bS1+3ZrIiZYbFap0v+RB+FOFwsbib2eBT6dL/JULv+5XwJ3jrxE7KGpTiCdxK2/UpvCYKd62Ouq2IZ//A5f/DQN11IMpPjh9nN5P1zn+oQfzqGfxKpTTv1goLsxdiHFqU4jjVSrUXRyvUqHu4niVCnUXx6tUqLs4XqVC3cXxqucViskVuGkP3GMhDFObQoxTm0Icr1Kh7uJ41d8rFLPLccsQ7rEQhqlNIca5x0Icr1Kh7uJ4lQp1F8erVKi7OF5VX3x2Phgq1Jb8fDBUqA3F+WCoUBsezgcn7VPBTK7ATZuYXY5bhnCPhZeXmdoUXubtU8EPJ3/zN3NXcOQ8FczkCty0idnluGUI91gIw9SmEOPcYyGOV1UXn3YFcz4YKpSTCuWkQjmpUE4qlJMK5aRCOalQTiqUkwrlpEI5qVBOKpSTCuWkQj3gosrXeBGN+/lNFeqT9Zzd+VWFutlY/O2iyunqrsVFlf+9U8Ev1KZQOxX86QRw/rZRqPXnCm/Luc31wgfqqAf8pGq5+rsKtdha/Pqr9aZrx0WVmVyBmzYxuxy3DOEeC2GY2hRinHssxPGq9uJLKpSTCuWkQjmpUE4qlJMK5aRCOalQTiqUkwrlpEI5jRWK2RXiOLPLxeFR3GMhDHOHhRjnHgtxvEqFuovjVdXF5+eDoUJtyc8HQ4XaUJwPhgq1YT0f/Gvd62r8fj0mV4gns5ldIcR3OWc+b26fjrPlHgtxvOJc3T79eD44Ukdtyc8HQ4VyUqGcVCgnFcpJhXJSoZxUKCcVykmFclKhnFQoJxXKSYVyUqEevC4X0Thd48m76UNnOKOtxXMq6nK/9sFChSrdfrVedjp4oUKV1kaKhSovqjzPL9U3JleIZ1GZXSF8wJnZ5WJ8QPVUcLiNOyzEj+EeC3F8W2X79O0HMEuh0v+GiTrqARdVTq3lv6gykyvEcWZXiOPMLheHR3GPhTDMHRZinHssxPGq9uJLKpSTCuWkQjmpUE4qlJMK5aRCOalQTiqUkwrlpEI5qVBOKtSW/HwwVKgt+flgqFAbivPBUKE2PJwPTp53KjiOM7tcHB5QPRVcuahy/BjusZAOtmn7VHCyng8+q6OS6uLX88EqVNJefEmFclKhnFQoJxXKSYVyUqGcVCgnFcpJhXJSoZxUKCcVykmFesBZ4PROu4KxtXjOAqd36ZwUVKgSZ4GXdyoUNhbPWeDbyeBiV3A667qNyRXiOWJmV3h5qewKXq9h3PPWuPvKvW9e0rn79+txFng9GRz/N0zUUQ/SWeAp/nK9WbuCb9qLL6lQTiqUkwrlpEI5qVBOKpSTCuWkQjmpUE4qlJMK5aRCOalQTipUwyW7ZKkK1bBeWzlQoeriDs57oZqYXCGOM7tCHGd2uTg8insshGHusBDj3GMhjtdRhIr12spi+J1fp1vq0rWVRURERERERERERERERES+gcs0TbeL3M3h7wH/JdLtV3ql3pXX683T/Xdgi/R7XR6c5mnZcaeGkv/mvDQU7xa/6K4c+9HkB6IFfF6nt/juvXhkun0BzHQeVr6N3s/8OXZU6qf38MCUrtV9ndYX9q/UUD/VF33m1VA/lRpKnkoNJU+lhpKnUkPJU6mh5KnUUPJUaih5KjWUPJUaSp5KDSVPpYaSp1JDyVN5P/Nx42++7en68Sv8eV62AGu3gdz4PvPlxt/T6fVyvl7D++qOTTXUT+X6zM+X9OA03/Zpzpf5lBrqrIZ6Mq7jaCLei+s+WkiPcH3mHzb+ni/ha1xqqGR7C3D6ZfXSi34xEe9Fw1hIj3A1VLnxN7126iP8e+sjbQF+HvrFRLwXDWMhPcL3mc82/n7wZS89QqUtwL/jA9YDNdQg+sVEvBcNYyE94os+82qoQfSLiXgvGsZCeoQa6ljoFxPxXjSMhfQINdSx0C8m4r1oGAvpEWqoY6FfTMR70TAW0iPUUMdCv5iI96JhLKRHqKGOhX4xEe9Fw1hIj1BDHQv9YiLei4axkB6hhjoW+sVEvBcNYyE9Qg11LPSLiXgvGsZCeoQa6ljoFxPxXjSMhfQINdSx0C8m4r1oGAvpEWqoY6FfTMR70TAW0iPUUMdCv5iI96JhLKRHqKGOhX4xEe9Fw1hIj+j9zM+Xt7ib5b6l7n26b7W7U0MNol9MxHvRMBbSIzo/86+xn9atdsGv39nezTs11CD6xUS8Fw1jIT2i8zP/sBn4NTbTdkPN83yOW0L1h/+Pl44twCFbPU79DxrGUvlo+w/nFuC79Trl6d3yeKVHqCeiX0zEe9EwFtIjej/zy/7xYhe5GuqJ6BcT8V40jIX0iO7PfHqJQnwGFS8rnaihnoh+MRHvRcNYSI/4os+8GmoQ/WIi3ouGsZAeoYY6FvrFRLwXDWMhPUINdSz0i4l4LxrGQnqEGupY6BcT8V40jIX0CDXUsdAvJuK9aBgL6RFqqGOhX0zEe9EwFtIj1FDHQr+YiPeiYSykR6ihjoV+MRHvRcNYSI9QQx0L/WIi3ouGsZAeoYY6FvrFRLwXDWMhPUINdSz0i4l4LxrGQnqEGupY6BcT8V40jIX0CDXUsdAvJuK9aBgL6RG+z/wcr2C3bvz9FXdBXeLFpHUV4GejX0zEe9EwFtIjXJ/5Txt/g/Qfaqhno19MxHvRMBbSI1yf+YeNv6ff07RcxnW58P1GU6mhBtEvJuK9aBgL6RG+R6hi4y8u6766+99WcU/5i/7p/4d+Mb28LFu4O9EwFvaHdwsf52uojY2/VkPxF+lDv5iI96JhLKRHOD/z6Wtb/NL2Hh6l5niZ8tRcaT9w0WZQQw2iX0zEe9EwFtIjvugzr4YaRL+YiP+fE3E11I9Dv5iI0y8m4mqoH4d+MRGnX0zE1VA/Dv1iIk6/mIiroX4c+sVEnH4xEVdD/Tj0i4k4/WIirob6cegXE3H6xUT8ZzYUJTMR/15Ym4k4/WIiroZqIf69sDYTcfrFRFwN1UK8FzWzkN4bazMRp19MxNVQLcR7UTML6b2xNhNx+sVEXA3VQrwXNbOQ3htrMxGnX0zE1VAtxHtRMwvpvbE2E3H6xUT8gA1V2wz8QA01iLWZiNMvJuLHa6jqZuAHaqhBrM1EnH4xET9eQ1U3Az9QQw1ibSbi9IuJ+AEfodqbgVf/ZQswJTPlH9PxDzWzZB+x5z+szUScfjHddgyzOMsS7hZ3Dvc2VHsz8EqPUINYm4k4/WIifrxHKHb9ft4M/EANNYi1mYjTLybiR2woHzXUINZmIk6/mIiroVqI96JmFtJ7Y20m4vSLibgaqoV4L2pmIb031mYiTr+YiKuhWoj3omYW0ntjbSbi9IuJuBqqhXgvamYhvTfWZiJOv5iIq6FaiPeiZhbSe2NtJuL0i4m4GqqFeC9qZiG9N9ZmIk6/mIiroVqI96JmFtJ7Y20m4vSLibgaqoV4L2pmIb031mYiTr+YiKuhWoj3omYW0ntjbSbi9IuJuBqqhXgvamYhvTfWZiJOv5iIq6FaiPeiZhbSe2NtJuL0i4m4GqqFeC9qZiG9N9ZmIk6/mIgfp6FeL9PHbd/v6fX6MU1py8o5jE4fF20BfhrWZiJOv5iIH6ahfn3eBfX2ZZeVpmQm4r2omYX03libiTj9YiJ+lIaaL5/3af6awh9nNdSTsTYTcfrFRPwoDfW4kzz4fX+py6/1a+GdtgAP/sPaTMTpF1PnFuAvvwrw8kKE+8tb3j/yPeXX35+eROkRahBrMxGnX0zEj/IIFR6bQkelfoqtlP4rucbHpt96Uv48rM1EnH4xET9MQ3VTQw1ibSbi9IuJuBqqhXgvamYhvTfWZiJOv5iIq6FaiPeiZhbSe2NtJuL0i4m4GqqFeC9qZiG9N9ZmIk6/mIiroVqI96JmFtJ7Y20m4vSLibgaqoV4L2pmIb031mYiTr+YiKuhWoj3omYW0ntjbSbi9IuJuBqqhXgvamYhvTfWZiJOv5iIq6FaiPeiZhbSe2NtJuL0i4m4GqqFeC9qZiG9N9ZmIk6/mIiroVqI96JmFtJ7Y20m4vSLibgaqoW4t6ik1VAOpEeooSpI7421mYizNhPxIzZUZTPwAzXUINZmIs7aTMQP2FC1zcAP1FCDWJuJOGszET9eQ21vBlZDPQ1rMxFnbSbix2uojc3A141+Coed55dBlMy0pN3bYOeXuEP1xb0F+O9gbaYQjcthbabl4O7FhyMPvCWdDWVsBl7pEWoQazMRZ20m4sd7hKpuBn6ghhrE2kzEWZuJ+AEbykkNNYi1mYizNhNxNVQLcTWUA3E1VAtxNZQDcTVUC3E1lANxNVQLcTWUA3E1VAtxNZQDcTVUC3E1lANxNVQLcTWUA3E1VAtxNZQDcTVUC3E1lANxNVQLcTWUA3E1VAtxNZQDcTVUC3E1lANxNVQLcTWUA/HDNNR8eYs7V25byc/TtOywm7c210VqqEGszUSctZmIH6WhXmM/5dvqbnuAD3EVYGpmIa2GciA9wvWZ/7zxl7+m37m/1VS7bQEO90LNLCl+7rkQ7p5vaXYBazPFlfvXfrQtwK+39lkbqniVwuXzC6n0CDWItZmIszYT8cN8yVteNpW9eCp/lcKrGup5WJuJOGszET9KQ8UGmj4u8Uvbe+ik5Qvd9Ps1Dof3S6SghhrE2kzEWZuJ+HEaqpcaahBrMxFnbSbiaqgW4mooB+JqqBbiaigH4mqoFuJqKAfiaqgW4mooB+JqqBbiaigH4mqoFuJqKAfiaqgW4mooB+JqqBbiaigH4mqoFuJqKAfiaqgW4mooB+JqqBbiaigH4mqoFuJqKAfiB2yo2mbgB2qoQazNRJy1mYgfr6Gqm4EfqKEGsTYTcdZmIn68hqpuBn6w1xbgeC/UzJKO/fJypmaWh+2tX/3G7LquAhz+ZW2mdOyAxVkeJud8828BvjM2A6/0CDWItZmIszYT8QN+yfu0GVgN9VSszUSctZmIH6+h0tPwT5uBL8tNGTXUINZmIs7aTMSP2FA+aqhBrM1EnLWZiKuhWoiroRyIq6FaiKuhHIiroVqIq6EciKuhWoiroRyIq6FaiKuhHIiroVqIq6EciKuhWoiroRyIq6FaiKuhHIiroVqIq6EciKuhWoiroRyIq6FaiKuhHIiroVqIq6EciB+mocqNv/f/0lWAn421mYizNhPxozRUufE3+y9dBfjZWJuJOGszET9KQ5Ubf7N3jasA85cBlMxEXA3lQPwwj1BLC7E589M24M2Lti67jNPFjzv/oWSmuKM83gM1sywHd19WOh57T6yetZmIszYT8S9efPyM+xqq3Pj7sA1YVwF+ItZmIs7aTMSP8ggVv77dNv5+hMel9JUu/peuAvxsrM1EnLWZiB+noXqpoQaxNhNx1mYiroZqIa6GciCuhmohroZyIK6GaiGuhnIgroZqIa6GciCuhmohroZyIK6GaiGuhnIgroZqIa6GciCuhmohroZyIK6GaiGuhnIgroZqIa6GciCuhmohroZyIK6GaiGuhnIgfvyGer18TOslgTNqqEGszUSctZmIH72hXn+xM+rTznI11CDWZiLO2kzEj95Q8yVt2ty4ELAaahBrMxFnbSbiR28oOmnjuq0ff+SH+n+0wIjX6fEy+CL/xTl2lPpJRERERERERERERL6b0+n/A8PNmNMko7oWAAAAAElFTkSuQmCC;" vertex="1" parent="1">
          <mxGeometry x="953.0018230124082" y="82.51165541704961" width="300" height="217.91" as="geometry" />
        </mxCell>
        <mxCell id="uut4hfN15O6eYL7KADeR-7" value="ML-100k" style="text;html=1;strokeColor=none;fillColor=none;align=center;verticalAlign=middle;whiteSpace=wrap;rounded=0;" vertex="1" parent="1">
          <mxGeometry x="144" y="289" width="60" height="30" as="geometry" />
        </mxCell>
        <mxCell id="uut4hfN15O6eYL7KADeR-8" value="ML-100k" style="text;html=1;strokeColor=none;fillColor=none;align=center;verticalAlign=middle;whiteSpace=wrap;rounded=0;" vertex="1" parent="1">
          <mxGeometry x="439" y="289" width="60" height="30" as="geometry" />
        </mxCell>
        <mxCell id="uut4hfN15O6eYL7KADeR-9" value="ML-100k" style="text;html=1;strokeColor=none;fillColor=none;align=center;verticalAlign=middle;whiteSpace=wrap;rounded=0;" vertex="1" parent="1">
          <mxGeometry x="730" y="289" width="60" height="30" as="geometry" />
        </mxCell>
        <mxCell id="uut4hfN15O6eYL7KADeR-10" value="ML-100k" style="text;html=1;strokeColor=none;fillColor=none;align=center;verticalAlign=middle;whiteSpace=wrap;rounded=0;" vertex="1" parent="1">
          <mxGeometry x="1023" y="289" width="60" height="30" as="geometry" />
        </mxCell>
        <mxCell id="uut4hfN15O6eYL7KADeR-11" value="Music" style="text;html=1;strokeColor=none;fillColor=none;align=center;verticalAlign=middle;whiteSpace=wrap;rounded=0;" vertex="1" parent="1">
          <mxGeometry x="274" y="289" width="60" height="30" as="geometry" />
        </mxCell>
        <mxCell id="uut4hfN15O6eYL7KADeR-12" value="Music" style="text;html=1;strokeColor=none;fillColor=none;align=center;verticalAlign=middle;whiteSpace=wrap;rounded=0;" vertex="1" parent="1">
          <mxGeometry x="562" y="289" width="60" height="30" as="geometry" />
        </mxCell>
        <mxCell id="uut4hfN15O6eYL7KADeR-13" value="Music" style="text;html=1;strokeColor=none;fillColor=none;align=center;verticalAlign=middle;whiteSpace=wrap;rounded=0;" vertex="1" parent="1">
          <mxGeometry x="860" y="289" width="60" height="30" as="geometry" />
        </mxCell>
        <mxCell id="uut4hfN15O6eYL7KADeR-14" value="Music" style="text;html=1;strokeColor=none;fillColor=none;align=center;verticalAlign=middle;whiteSpace=wrap;rounded=0;" vertex="1" parent="1">
          <mxGeometry x="1148" y="289" width="60" height="30" as="geometry" />
        </mxCell>
        <mxCell id="uut4hfN15O6eYL7KADeR-15" value="&lt;font style=&quot;font-size: 18px;&quot;&gt;(a) Recall@10&lt;/font&gt;" style="text;html=1;strokeColor=none;fillColor=none;align=center;verticalAlign=middle;whiteSpace=wrap;rounded=0;" vertex="1" parent="1">
          <mxGeometry x="146" y="322" width="188" height="30" as="geometry" />
        </mxCell>
        <mxCell id="uut4hfN15O6eYL7KADeR-16" value="&lt;font style=&quot;font-size: 18px;&quot;&gt;(b) Recall@20&lt;/font&gt;" style="text;html=1;strokeColor=none;fillColor=none;align=center;verticalAlign=middle;whiteSpace=wrap;rounded=0;" vertex="1" parent="1">
          <mxGeometry x="439" y="322" width="188" height="30" as="geometry" />
        </mxCell>
        <mxCell id="uut4hfN15O6eYL7KADeR-17" value="&lt;font style=&quot;font-size: 18px;&quot;&gt;(c) MRR&lt;/font&gt;" style="text;html=1;strokeColor=none;fillColor=none;align=center;verticalAlign=middle;whiteSpace=wrap;rounded=0;" vertex="1" parent="1">
          <mxGeometry x="720" y="322" width="188" height="30" as="geometry" />
        </mxCell>
        <mxCell id="uut4hfN15O6eYL7KADeR-18" value="&lt;font style=&quot;font-size: 18px;&quot;&gt;(d) NDCG@10&lt;/font&gt;" style="text;html=1;strokeColor=none;fillColor=none;align=center;verticalAlign=middle;whiteSpace=wrap;rounded=0;" vertex="1" parent="1">
          <mxGeometry x="1020" y="322" width="188" height="30" as="geometry" />
        </mxCell>
      </root>
    </mxGraphModel>
  </diagram>
</mxfile>
